<svg width="53" height="67" viewBox="0 0 53 67" fill="none" xmlns="http://www.w3.org/2000/svg">
<mask id="path-1-outside-1_461_301" maskUnits="userSpaceOnUse" x="-2" y="-2" width="56" height="70" fill="black">
<rect fill="white" x="-2" y="-2" width="56" height="70"/>
<path d="M6.024 67V55.384H24.072V10.456H23.208L9.576 28.312L0.36 21.112L16.392 -0.00800133H38.472V55.384H52.68V67H6.024Z"/>
</mask>
<path d="M6.024 67V55.384H24.072V10.456H23.208L9.576 28.312L0.36 21.112L16.392 -0.00800133H38.472V55.384H52.68V67H6.024Z" fill="#E3E3E3"/>
<path d="M6.024 67H5.024V68H6.024V67ZM6.024 55.384V54.384H5.024V55.384H6.024ZM24.072 55.384V56.384H25.072V55.384H24.072ZM24.072 10.456H25.072V9.456H24.072V10.456ZM23.208 10.456V9.456H22.7133L22.4132 9.84918L23.208 10.456ZM9.576 28.312L8.96036 29.1L9.75722 29.7226L10.3708 28.9188L9.576 28.312ZM0.36 21.112L-0.436511 20.5074L-1.03278 21.2929L-0.255644 21.9L0.36 21.112ZM16.392 -0.00800133V-1.008H15.8956L15.5955 -0.612626L16.392 -0.00800133ZM38.472 -0.00800133H39.472V-1.008H38.472V-0.00800133ZM38.472 55.384H37.472V56.384H38.472V55.384ZM52.68 55.384H53.68V54.384H52.68V55.384ZM52.68 67V68H53.68V67H52.68ZM7.024 67V55.384H5.024V67H7.024ZM6.024 56.384H24.072V54.384H6.024V56.384ZM25.072 55.384V10.456H23.072V55.384H25.072ZM24.072 9.456H23.208V11.456H24.072V9.456ZM22.4132 9.84918L8.78116 27.7052L10.3708 28.9188L24.0028 11.0628L22.4132 9.84918ZM10.1916 27.524L0.975644 20.324L-0.255644 21.9L8.96036 29.1L10.1916 27.524ZM1.15651 21.7166L17.1885 0.596623L15.5955 -0.612626L-0.436511 20.5074L1.15651 21.7166ZM16.392 0.991999H38.472V-1.008H16.392V0.991999ZM37.472 -0.00800133V55.384H39.472V-0.00800133H37.472ZM38.472 56.384H52.68V54.384H38.472V56.384ZM51.68 55.384V67H53.68V55.384H51.68ZM52.68 66H6.024V68H52.68V66Z" fill="black" fill-opacity="0.2" mask="url(#path-1-outside-1_461_301)"/>
</svg>
