<svg width="51" height="71" viewBox="0 0 51 71" fill="none" xmlns="http://www.w3.org/2000/svg">
<mask id="path-1-outside-1_475_368" maskUnits="userSpaceOnUse" x="-1" y="-1" width="53" height="73" fill="black">
<rect fill="white" x="-1" y="-1" width="53" height="73"/>
<path d="M24.152 28.488C27.736 28.488 30.328 27.816 31.928 26.472C33.592 25.064 34.424 23.336 34.424 21.288V20.616C34.424 18.184 33.624 16.232 32.024 14.76C30.488 13.288 28.28 12.552 25.4 12.552C22.712 12.552 20.184 13.256 17.816 14.664C15.448 16.008 13.432 17.96 11.768 20.52L2.744 12.072C4.024 10.408 5.4 8.904 6.872 7.56C8.344 6.15199 10.008 4.96799 11.864 4.008C13.72 2.984 15.8 2.216 18.104 1.704C20.408 1.128 23 0.839996 25.88 0.839996C29.464 0.839996 32.696 1.256 35.576 2.088C38.52 2.92 41.016 4.136 43.064 5.736C45.176 7.272 46.776 9.128 47.864 11.304C49.016 13.48 49.592 15.912 49.592 18.6C49.592 20.712 49.24 22.632 48.536 24.36C47.896 26.088 46.968 27.592 45.752 28.872C44.6 30.152 43.256 31.208 41.72 32.04C40.184 32.808 38.552 33.352 36.824 33.672V34.248C38.808 34.632 40.632 35.272 42.296 36.168C44.024 37 45.496 38.088 46.712 39.432C47.992 40.776 48.984 42.376 49.688 44.232C50.392 46.024 50.744 48.072 50.744 50.376C50.744 53.384 50.136 56.104 48.92 58.536C47.704 60.968 45.976 63.048 43.736 64.776C41.496 66.504 38.808 67.848 35.672 68.808C32.536 69.704 29.08 70.152 25.304 70.152C21.912 70.152 18.904 69.8 16.28 69.096C13.656 68.392 11.352 67.464 9.368 66.312C7.448 65.096 5.752 63.72 4.28 62.184C2.872 60.648 1.624 59.016 0.536 57.288L11.192 49.032C12.664 51.784 14.456 54.056 16.568 55.848C18.744 57.576 21.656 58.44 25.304 58.44C28.568 58.44 31.096 57.64 32.888 56.04C34.744 54.376 35.672 52.136 35.672 49.32V48.744C35.672 45.992 34.616 43.944 32.504 42.6C30.456 41.192 27.608 40.488 23.96 40.488H17.912V28.488H24.152Z"/>
</mask>
<path d="M24.152 28.488C27.736 28.488 30.328 27.816 31.928 26.472C33.592 25.064 34.424 23.336 34.424 21.288V20.616C34.424 18.184 33.624 16.232 32.024 14.76C30.488 13.288 28.28 12.552 25.4 12.552C22.712 12.552 20.184 13.256 17.816 14.664C15.448 16.008 13.432 17.96 11.768 20.52L2.744 12.072C4.024 10.408 5.4 8.904 6.872 7.56C8.344 6.15199 10.008 4.96799 11.864 4.008C13.72 2.984 15.8 2.216 18.104 1.704C20.408 1.128 23 0.839996 25.88 0.839996C29.464 0.839996 32.696 1.256 35.576 2.088C38.52 2.92 41.016 4.136 43.064 5.736C45.176 7.272 46.776 9.128 47.864 11.304C49.016 13.48 49.592 15.912 49.592 18.6C49.592 20.712 49.24 22.632 48.536 24.36C47.896 26.088 46.968 27.592 45.752 28.872C44.6 30.152 43.256 31.208 41.72 32.04C40.184 32.808 38.552 33.352 36.824 33.672V34.248C38.808 34.632 40.632 35.272 42.296 36.168C44.024 37 45.496 38.088 46.712 39.432C47.992 40.776 48.984 42.376 49.688 44.232C50.392 46.024 50.744 48.072 50.744 50.376C50.744 53.384 50.136 56.104 48.92 58.536C47.704 60.968 45.976 63.048 43.736 64.776C41.496 66.504 38.808 67.848 35.672 68.808C32.536 69.704 29.08 70.152 25.304 70.152C21.912 70.152 18.904 69.8 16.28 69.096C13.656 68.392 11.352 67.464 9.368 66.312C7.448 65.096 5.752 63.72 4.28 62.184C2.872 60.648 1.624 59.016 0.536 57.288L11.192 49.032C12.664 51.784 14.456 54.056 16.568 55.848C18.744 57.576 21.656 58.44 25.304 58.44C28.568 58.44 31.096 57.64 32.888 56.04C34.744 54.376 35.672 52.136 35.672 49.32V48.744C35.672 45.992 34.616 43.944 32.504 42.6C30.456 41.192 27.608 40.488 23.96 40.488H17.912V28.488H24.152Z" fill="#E3E3E3"/>
<path d="M31.928 26.472L32.5712 27.2377L32.5739 27.2354L31.928 26.472ZM32.024 14.76L31.3321 15.482L31.3394 15.489L31.3469 15.4959L32.024 14.76ZM17.816 14.664L18.3096 15.5337L18.3184 15.5287L18.3271 15.5235L17.816 14.664ZM11.768 20.52L11.0846 21.25L11.9559 22.0658L12.6064 21.065L11.768 20.52ZM2.744 12.072L1.95138 11.4623L1.39797 12.1817L2.06058 12.802L2.744 12.072ZM6.872 7.56L7.54627 8.29848L7.55484 8.29066L7.56322 8.28264L6.872 7.56ZM11.864 4.008L12.3234 4.89621L12.3353 4.89005L12.3471 4.88357L11.864 4.008ZM18.104 1.704L18.3209 2.68018L18.3338 2.67733L18.3465 2.67414L18.104 1.704ZM35.576 2.088L35.2985 3.04873L35.304 3.05031L35.576 2.088ZM43.064 5.736L42.4484 6.52402L42.4619 6.53461L42.4758 6.54473L43.064 5.736ZM47.864 11.304L46.9696 11.7512L46.9748 11.7616L46.9802 11.7719L47.864 11.304ZM48.536 24.36L47.6099 23.9827L47.6038 23.9976L47.5983 24.0127L48.536 24.36ZM45.752 28.872L45.027 28.1832L45.0177 28.193L45.0087 28.203L45.752 28.872ZM41.72 32.04L42.1672 32.9344L42.1819 32.9271L42.1963 32.9193L41.72 32.04ZM36.824 33.672L36.6419 32.6887L35.824 32.8402V33.672H36.824ZM36.824 34.248H35.824V35.073L36.634 35.2298L36.824 34.248ZM42.296 36.168L41.8219 37.0485L41.8418 37.0592L41.8622 37.069L42.296 36.168ZM46.712 39.432L45.9705 40.1029L45.979 40.1124L45.9879 40.1217L46.712 39.432ZM49.688 44.232L48.7529 44.5867L48.7572 44.5977L49.688 44.232ZM48.92 58.536L48.0256 58.0888L48.0256 58.0888L48.92 58.536ZM43.736 64.776L43.1252 63.9842L43.1252 63.9842L43.736 64.776ZM35.672 68.808L35.9467 69.7695L35.9557 69.7669L35.9647 69.7642L35.672 68.808ZM16.28 69.096L16.0209 70.0618L16.0209 70.0618L16.28 69.096ZM9.368 66.312L8.83295 67.1568L8.84921 67.1671L8.86586 67.1768L9.368 66.312ZM4.28 62.184L3.54285 62.8597L3.55034 62.8679L3.55801 62.8759L4.28 62.184ZM0.536 57.288L-0.0764603 56.4975L-0.793597 57.0531L-0.310233 57.8208L0.536 57.288ZM11.192 49.032L12.0738 48.5603L11.5154 47.5164L10.5795 48.2415L11.192 49.032ZM16.568 55.848L15.921 56.6105L15.9334 56.621L15.9461 56.6311L16.568 55.848ZM32.888 56.04L33.554 56.7859L33.5555 56.7846L32.888 56.04ZM32.504 42.6L31.9375 43.424L31.9521 43.4341L31.9671 43.4437L32.504 42.6ZM17.912 40.488H16.912V41.488H17.912V40.488ZM17.912 28.488V27.488H16.912V28.488H17.912ZM24.152 29.488C27.8179 29.488 30.7009 28.8088 32.5712 27.2377L31.2848 25.7063C29.9551 26.8232 27.6541 27.488 24.152 27.488V29.488ZM32.5739 27.2354C34.446 25.6513 35.424 23.6511 35.424 21.288H33.424C33.424 23.0209 32.738 24.4767 31.2821 25.7086L32.5739 27.2354ZM35.424 21.288V20.616H33.424V21.288H35.424ZM35.424 20.616C35.424 17.9411 34.5325 15.709 32.7011 14.0241L31.3469 15.4959C32.7155 16.755 33.424 18.4269 33.424 20.616H35.424ZM32.7159 14.038C30.9359 12.3322 28.4447 11.552 25.4 11.552V13.552C28.1153 13.552 30.0401 14.2438 31.3321 15.482L32.7159 14.038ZM25.4 11.552C22.5275 11.552 19.8235 12.3069 17.3049 13.8045L18.3271 15.5235C20.5445 14.2051 22.8965 13.552 25.4 13.552V11.552ZM17.3224 13.7943C14.7989 15.2265 12.6701 17.2972 10.9296 19.975L12.6064 21.065C14.1939 18.6228 16.0971 16.7895 18.3096 15.5337L17.3224 13.7943ZM12.4514 19.79L3.42742 11.342L2.06058 12.802L11.0846 21.25L12.4514 19.79ZM3.53662 12.6817C4.78289 11.0616 6.11963 9.60107 7.54627 8.29848L6.19773 6.82151C4.68037 8.20692 3.26511 9.75443 1.95138 11.4623L3.53662 12.6817ZM7.56322 8.28264C8.96448 6.9423 10.55 5.81351 12.3234 4.89621L11.4046 3.11978C9.46601 4.12248 7.72352 5.36168 6.18078 6.83735L7.56322 8.28264ZM12.3471 4.88357C14.1108 3.91051 16.0996 3.17382 18.3209 2.68018L17.8871 0.72781C15.5004 1.25818 13.3292 2.05748 11.3809 3.13242L12.3471 4.88357ZM18.3465 2.67414C20.5565 2.12164 23.0651 1.84 25.88 1.84V-0.160004C22.9349 -0.160004 20.2595 0.134354 17.8615 0.733854L18.3465 2.67414ZM25.88 1.84C29.3878 1.84 32.5243 2.24727 35.2985 3.04871L35.8535 1.12728C32.8677 0.26472 29.5402 -0.160004 25.88 -0.160004V1.84ZM35.304 3.05031C38.145 3.85319 40.5189 5.01667 42.4484 6.52402L43.6796 4.94797C41.5131 3.25533 38.895 1.98681 35.848 1.12569L35.304 3.05031ZM42.4758 6.54473C44.468 7.99359 45.9584 9.72892 46.9696 11.7512L48.7584 10.8568C47.5936 8.52707 45.884 6.5504 43.6522 4.92726L42.4758 6.54473ZM46.9802 11.7719C48.049 13.7908 48.592 16.0598 48.592 18.6H50.592C50.592 15.7642 49.983 13.1692 48.7478 10.8361L46.9802 11.7719ZM48.592 18.6C48.592 20.5996 48.2591 22.3893 47.6099 23.9827L49.4621 24.7373C50.2209 22.8747 50.592 20.8244 50.592 18.6H48.592ZM47.5983 24.0127C47.0032 25.6193 46.1456 27.0058 45.027 28.1832L46.477 29.5607C47.7904 28.1782 48.7888 26.5567 49.4738 24.7073L47.5983 24.0127ZM45.0087 28.203C43.9342 29.397 42.6808 30.3823 41.2437 31.1607L42.1963 32.9193C43.8312 32.0337 45.2658 30.907 46.4953 29.541L45.0087 28.203ZM41.2728 31.1456C39.8225 31.8707 38.28 32.3854 36.6419 32.6887L37.0061 34.6553C38.824 34.3186 40.5455 33.7453 42.1672 32.9344L41.2728 31.1456ZM35.824 33.672V34.248H37.824V33.672H35.824ZM36.634 35.2298C38.5256 35.5959 40.2529 36.2036 41.8219 37.0485L42.7701 35.2875C41.0111 34.3404 39.0904 33.6681 37.014 33.2662L36.634 35.2298ZM41.8622 37.069C43.4806 37.8482 44.8462 38.8603 45.9705 40.1029L47.4535 38.7611C46.1458 37.3157 44.5674 36.1518 42.7298 35.267L41.8622 37.069ZM45.9879 40.1217C47.1697 41.3626 48.0929 42.8465 48.753 44.5867L50.623 43.8773C49.8751 41.9055 48.8143 40.1894 47.4361 38.7423L45.9879 40.1217ZM48.7572 44.5977C49.4075 46.2527 49.744 48.1731 49.744 50.376H51.744C51.744 47.9709 51.3765 45.7953 50.6188 43.8663L48.7572 44.5977ZM49.744 50.376C49.744 53.2455 49.165 55.8099 48.0256 58.0888L49.8144 58.9832C51.107 56.3981 51.744 53.5225 51.744 50.376H49.744ZM48.0256 58.0888C46.8797 60.3805 45.2509 62.3444 43.1252 63.9842L44.3468 65.5678C46.7011 63.7516 48.5283 61.5555 49.8144 58.9832L48.0256 58.0888ZM43.1252 63.9842C40.9943 65.628 38.4183 66.9215 35.3793 67.8518L35.9647 69.7642C39.1977 68.7745 41.9977 67.38 44.3468 65.5678L43.1252 63.9842ZM35.3973 67.8465C32.3634 68.7133 29.0014 69.152 25.304 69.152V71.152C29.1586 71.152 32.7086 70.6947 35.9467 69.7695L35.3973 67.8465ZM25.304 69.152C21.9788 69.152 19.0607 68.8067 16.5391 68.1302L16.0209 70.0618C18.7473 70.7933 21.8452 71.152 25.304 71.152V69.152ZM16.5391 68.1302C13.9851 67.4449 11.7655 66.5477 9.87014 65.4472L8.86586 67.1768C10.9385 68.3803 13.3269 69.3391 16.0209 70.0618L16.5391 68.1302ZM9.90305 65.4672C8.04668 64.2915 6.41441 62.9659 5.00199 61.4921L3.55801 62.8759C5.08959 64.4741 6.84932 65.9005 8.83295 67.1568L9.90305 65.4672ZM5.01715 61.5083C3.6489 60.0156 2.43759 58.4313 1.38223 56.7552L-0.310233 57.8208C0.81041 59.6007 2.0951 61.2804 3.54285 62.8597L5.01715 61.5083ZM1.14846 58.0785L11.8045 49.8225L10.5795 48.2415L-0.0764603 56.4975L1.14846 58.0785ZM10.3102 49.5037C11.834 52.3525 13.7018 54.7275 15.921 56.6105L17.215 55.0855C15.2102 53.3845 13.494 51.2155 12.0738 48.5603L10.3102 49.5037ZM15.9461 56.6311C18.3476 58.5381 21.5012 59.44 25.304 59.44V57.44C21.8108 57.44 19.1404 56.6139 17.1899 55.0649L15.9461 56.6311ZM25.304 59.44C28.7248 59.44 31.5218 58.6004 33.554 56.7859L32.222 55.2941C30.6702 56.6796 28.4112 57.44 25.304 57.44V59.44ZM33.5555 56.7846C35.6518 54.9052 36.672 52.3793 36.672 49.32H34.672C34.672 51.8927 33.8362 53.8468 32.2205 55.2954L33.5555 56.7846ZM36.672 49.32V48.744H34.672V49.32H36.672ZM36.672 48.744C36.672 45.6905 35.4739 43.3046 33.0409 41.7563L31.9671 43.4437C33.7582 44.5834 34.672 46.2935 34.672 48.744H36.672ZM33.0705 41.776C30.7946 40.2113 27.7205 39.488 23.96 39.488V41.488C27.4955 41.488 30.1174 42.1727 31.9375 43.424L33.0705 41.776ZM23.96 39.488H17.912V41.488H23.96V39.488ZM18.912 40.488V28.488H16.912V40.488H18.912ZM17.912 29.488H24.152V27.488H17.912V29.488Z" fill="black" fill-opacity="0.2" mask="url(#path-1-outside-1_475_368)"/>
</svg>
