<svg width="53" height="67" viewBox="0 0 53 67" fill="none" xmlns="http://www.w3.org/2000/svg">
<mask id="path-1-outside-1_476_203" maskUnits="userSpaceOnUse" x="-1" y="-2" width="55" height="70" fill="black">
<rect fill="white" x="-1" y="-2" width="55" height="70"/>
<path d="M30.352 67V54.136H0.88V41.848L26.992 -0.00800133H44.08V43H52.528V54.136H44.08V67H30.352ZM12.4 43H30.352V14.872H29.392L12.4 43Z"/>
</mask>
<path d="M30.352 67V54.136H0.88V41.848L26.992 -0.00800133H44.08V43H52.528V54.136H44.08V67H30.352ZM12.4 43H30.352V14.872H29.392L12.4 43Z" fill="#E3E3E3"/>
<path d="M30.352 67H29.352V68H30.352V67ZM30.352 54.136H31.352V53.136H30.352V54.136ZM0.88 54.136H-0.12V55.136H0.88V54.136ZM0.88 41.848L0.0315648 41.3187L-0.12 41.5616V41.848H0.88ZM26.992 -0.00800133V-1.008H26.4372L26.1436 -0.5373L26.992 -0.00800133ZM44.08 -0.00800133H45.08V-1.008H44.08V-0.00800133ZM44.08 43H43.08V44H44.08V43ZM52.528 43H53.528V42H52.528V43ZM52.528 54.136V55.136H53.528V54.136H52.528ZM44.08 54.136V53.136H43.08V54.136H44.08ZM44.08 67V68H45.08V67H44.08ZM12.4 43L11.5441 42.4829L10.6276 44H12.4V43ZM30.352 43V44H31.352V43H30.352ZM30.352 14.872H31.352V13.872H30.352V14.872ZM29.392 14.872V13.872H28.8278L28.5361 14.3549L29.392 14.872ZM31.352 67V54.136H29.352V67H31.352ZM30.352 53.136H0.88V55.136H30.352V53.136ZM1.88 54.136V41.848H-0.12V54.136H1.88ZM1.72844 42.3773L27.8404 0.521298L26.1436 -0.5373L0.0315648 41.3187L1.72844 42.3773ZM26.992 0.991999H44.08V-1.008H26.992V0.991999ZM43.08 -0.00800133V43H45.08V-0.00800133H43.08ZM44.08 44H52.528V42H44.08V44ZM51.528 43V54.136H53.528V43H51.528ZM52.528 53.136H44.08V55.136H52.528V53.136ZM43.08 54.136V67H45.08V54.136H43.08ZM44.08 66H30.352V68H44.08V66ZM12.4 44H30.352V42H12.4V44ZM31.352 43V14.872H29.352V43H31.352ZM30.352 13.872H29.392V15.872H30.352V13.872ZM28.5361 14.3549L11.5441 42.4829L13.2559 43.5171L30.2479 15.3891L28.5361 14.3549Z" fill="black" fill-opacity="0.2" mask="url(#path-1-outside-1_476_203)"/>
</svg>
