<svg width="51" height="69" viewBox="0 0 51 69" fill="none" xmlns="http://www.w3.org/2000/svg">
<mask id="path-1-outside-1_476_92" maskUnits="userSpaceOnUse" x="-1" y="-2" width="53" height="72" fill="black">
<rect fill="white" x="-1" y="-2" width="53" height="72"/>
<path d="M46.112 12.568H15.68L14.24 33.784H15.008C15.648 32.184 16.352 30.744 17.12 29.464C17.952 28.12 18.912 27 20 26.104C21.088 25.144 22.4 24.408 23.936 23.896C25.472 23.384 27.296 23.128 29.408 23.128C32.288 23.128 34.976 23.608 37.472 24.568C39.968 25.528 42.144 26.936 44 28.792C45.856 30.584 47.328 32.824 48.416 35.512C49.504 38.136 50.048 41.112 50.048 44.44C50.048 47.832 49.472 51 48.32 53.944C47.232 56.824 45.568 59.32 43.328 61.432C41.152 63.544 38.464 65.208 35.264 66.424C32.064 67.576 28.416 68.152 24.32 68.152C21.056 68.152 18.176 67.8 15.68 67.096C13.184 66.392 10.976 65.464 9.056 64.312C7.136 63.096 5.472 61.72 4.064 60.184C2.656 58.648 1.44 57.016 0.416 55.288L10.88 47.032C12.352 49.656 14.112 51.896 16.16 53.752C18.208 55.544 20.96 56.44 24.416 56.44C27.872 56.44 30.464 55.448 32.192 53.464C33.984 51.48 34.88 48.856 34.88 45.592V44.824C34.88 41.752 33.984 39.32 32.192 37.528C30.4 35.736 27.936 34.84 24.8 34.84C22.176 34.84 20 35.384 18.272 36.472C16.608 37.496 15.328 38.52 14.432 39.544L2.624 37.912L5.12 -0.00800133H46.112V12.568Z"/>
</mask>
<path d="M46.112 12.568H15.68L14.24 33.784H15.008C15.648 32.184 16.352 30.744 17.12 29.464C17.952 28.12 18.912 27 20 26.104C21.088 25.144 22.4 24.408 23.936 23.896C25.472 23.384 27.296 23.128 29.408 23.128C32.288 23.128 34.976 23.608 37.472 24.568C39.968 25.528 42.144 26.936 44 28.792C45.856 30.584 47.328 32.824 48.416 35.512C49.504 38.136 50.048 41.112 50.048 44.44C50.048 47.832 49.472 51 48.32 53.944C47.232 56.824 45.568 59.32 43.328 61.432C41.152 63.544 38.464 65.208 35.264 66.424C32.064 67.576 28.416 68.152 24.32 68.152C21.056 68.152 18.176 67.8 15.68 67.096C13.184 66.392 10.976 65.464 9.056 64.312C7.136 63.096 5.472 61.72 4.064 60.184C2.656 58.648 1.44 57.016 0.416 55.288L10.88 47.032C12.352 49.656 14.112 51.896 16.16 53.752C18.208 55.544 20.96 56.44 24.416 56.44C27.872 56.44 30.464 55.448 32.192 53.464C33.984 51.48 34.88 48.856 34.88 45.592V44.824C34.88 41.752 33.984 39.32 32.192 37.528C30.4 35.736 27.936 34.84 24.8 34.84C22.176 34.84 20 35.384 18.272 36.472C16.608 37.496 15.328 38.52 14.432 39.544L2.624 37.912L5.12 -0.00800133H46.112V12.568Z" fill="#E3E3E3"/>
<path d="M46.112 12.568V13.568H47.112V12.568H46.112ZM15.68 12.568V11.568H14.7456L14.6823 12.5003L15.68 12.568ZM14.24 33.784L13.2423 33.7163L13.1698 34.784H14.24V33.784ZM15.008 33.784V34.784H15.685L15.9365 34.1554L15.008 33.784ZM17.12 29.464L16.2697 28.9376L16.2625 28.9495L17.12 29.464ZM20 26.104L20.6357 26.8759L20.6489 26.8651L20.6616 26.8538L20 26.104ZM23.936 23.896L23.6198 22.9473L23.6198 22.9473L23.936 23.896ZM37.472 24.568L37.831 23.6347L37.831 23.6347L37.472 24.568ZM44 28.792L43.2929 29.4991L43.2991 29.5053L43.3054 29.5114L44 28.792ZM48.416 35.512L47.489 35.8872L47.4923 35.895L48.416 35.512ZM48.32 53.944L47.3887 53.5796L47.3845 53.5906L48.32 53.944ZM43.328 61.432L42.642 60.7044L42.6367 60.7094L42.6315 60.7144L43.328 61.432ZM35.264 66.424L35.6027 67.3649L35.611 67.3619L35.6192 67.3588L35.264 66.424ZM15.68 67.096L15.4085 68.0584L15.68 67.096ZM9.056 64.312L8.52095 65.1568L8.53115 65.1633L8.5415 65.1695L9.056 64.312ZM4.064 60.184L4.80115 59.5083L4.064 60.184ZM0.416 55.288L-0.20341 54.5029L-0.890413 55.045L-0.444291 55.7978L0.416 55.288ZM10.88 47.032L11.7521 46.5427L11.1795 45.5219L10.2606 46.2469L10.88 47.032ZM16.16 53.752L15.4885 54.493L15.4949 54.4988L15.5015 54.5046L16.16 53.752ZM32.192 53.464L31.4499 52.7937L31.4438 52.8004L31.4379 52.8072L32.192 53.464ZM32.192 37.528L31.4849 38.2351L31.4849 38.2351L32.192 37.528ZM18.272 36.472L18.7961 37.3237L18.8048 37.3182L18.272 36.472ZM14.432 39.544L14.2951 40.5346L14.8294 40.6084L15.1846 40.2025L14.432 39.544ZM2.624 37.912L1.62616 37.8463L1.56502 38.7751L2.48709 38.9026L2.624 37.912ZM5.12 -0.00800133V-1.008H4.18366L4.12216 -0.073682L5.12 -0.00800133ZM46.112 -0.00800133H47.112V-1.008H46.112V-0.00800133ZM46.112 11.568H15.68V13.568H46.112V11.568ZM14.6823 12.5003L13.2423 33.7163L15.2377 33.8517L16.6777 12.6357L14.6823 12.5003ZM14.24 34.784H15.008V32.784H14.24V34.784ZM15.9365 34.1554C16.5596 32.5975 17.2407 31.2064 17.9775 29.9785L16.2625 28.9495C15.4633 30.2816 14.7364 31.7705 14.0795 33.4126L15.9365 34.1554ZM17.9703 29.9904C18.7516 28.7282 19.6418 27.6945 20.6357 26.8759L19.3643 25.3321C18.1822 26.3055 17.1524 27.5118 16.2697 28.9376L17.9703 29.9904ZM20.6616 26.8538C21.638 25.9924 22.8288 25.3192 24.2522 24.8447L23.6198 22.9473C21.9712 23.4968 20.5381 24.2956 19.3384 25.3542L20.6616 26.8538ZM24.2522 24.8447C25.6606 24.3752 27.3726 24.128 29.408 24.128V22.128C27.2194 22.128 25.2834 22.3928 23.6198 22.9473L24.2522 24.8447ZM29.408 24.128C32.1748 24.128 34.7401 24.5887 37.113 25.5013L37.831 23.6347C35.2119 22.6273 32.4012 22.128 29.408 22.128V24.128ZM37.113 25.5013C39.481 26.4121 41.5377 27.7439 43.2929 29.4991L44.7071 28.0849C42.7503 26.1281 40.455 24.6439 37.831 23.6347L37.113 25.5013ZM43.3054 29.5114C45.0489 31.1948 46.447 33.3128 47.4891 35.8872L49.3429 35.1368C48.209 32.3352 46.6631 29.9732 44.6946 28.0726L43.3054 29.5114ZM47.4923 35.895C48.522 38.3786 49.048 41.2212 49.048 44.44H51.048C51.048 41.0028 50.486 37.8934 49.3397 35.129L47.4923 35.895ZM49.048 44.44C49.048 47.7165 48.4921 50.76 47.3888 53.5796L49.2512 54.3084C50.4519 51.24 51.048 47.9475 51.048 44.44H49.048ZM47.3845 53.5906C46.3502 56.3285 44.7715 58.6966 42.642 60.7044L44.014 62.1596C46.3645 59.9434 48.1138 57.3195 49.2555 54.2974L47.3845 53.5906ZM42.6315 60.7144C40.5651 62.72 37.9978 64.3154 34.9088 65.4892L35.6192 67.3588C38.9302 66.1006 41.7389 64.368 44.0245 62.1496L42.6315 60.7144ZM34.9253 65.4831C31.8536 66.5889 28.3234 67.152 24.32 67.152V69.152C28.5086 69.152 32.2744 68.5631 35.6027 67.3649L34.9253 65.4831ZM24.32 67.152C21.1252 67.152 18.3398 66.8072 15.9515 66.1336L15.4085 68.0584C18.0122 68.7928 20.9868 69.152 24.32 69.152V67.152ZM15.9515 66.1336C13.5276 65.4499 11.4036 64.5544 9.5705 63.4545L8.5415 65.1695C10.5484 66.3736 12.8404 67.3341 15.4085 68.0584L15.9515 66.1336ZM9.59105 63.4672C7.73889 62.2941 6.14441 60.9736 4.80115 59.5083L3.32685 60.8597C4.79959 62.4664 6.53311 63.8979 8.52095 65.1568L9.59105 63.4672ZM4.80115 59.5083C3.43808 58.0213 2.2638 56.4446 1.27629 54.7782L-0.444291 55.7978C0.616205 57.5874 1.87392 59.2747 3.32685 60.8597L4.80115 59.5083ZM1.03541 56.0731L11.4994 47.8171L10.2606 46.2469L-0.20341 54.5029L1.03541 56.0731ZM10.0079 47.5213C11.528 50.2311 13.3537 52.5583 15.4885 54.493L16.8315 53.011C14.8703 51.2337 13.176 49.0809 11.7521 46.5427L10.0079 47.5213ZM15.5015 54.5046C17.7768 56.4955 20.7851 57.44 24.416 57.44V55.44C21.1349 55.44 18.6392 54.5925 16.8185 52.9994L15.5015 54.5046ZM24.416 57.44C28.0649 57.44 30.9729 56.3862 32.9461 54.1208L31.4379 52.8072C29.9551 54.5098 27.6791 55.44 24.416 55.44V57.44ZM32.9341 54.1343C34.9269 51.928 35.88 49.0463 35.88 45.592H33.88C33.88 48.6657 33.0411 51.032 31.4499 52.7937L32.9341 54.1343ZM35.88 45.592V44.824H33.88V45.592H35.88ZM35.88 44.824C35.88 41.5468 34.9172 38.839 32.8991 36.8209L31.4849 38.2351C33.0508 39.801 33.88 41.9572 33.88 44.824H35.88ZM32.8991 36.8209C30.8771 34.7989 28.1345 33.84 24.8 33.84V35.84C27.7375 35.84 29.9229 36.6731 31.4849 38.2351L32.8991 36.8209ZM24.8 33.84C22.0405 33.84 19.6664 34.4124 17.7392 35.6258L18.8048 37.3182C20.3336 36.3556 22.3115 35.84 24.8 35.84V33.84ZM17.7479 35.6203C16.0324 36.6761 14.6634 37.761 13.6794 38.8855L15.1846 40.2025C15.9927 39.279 17.1836 38.3159 18.7961 37.3237L17.7479 35.6203ZM14.5689 38.5534L2.76091 36.9214L2.48709 38.9026L14.2951 40.5346L14.5689 38.5534ZM3.62184 37.9777L6.11784 0.0576793L4.12216 -0.073682L1.62616 37.8463L3.62184 37.9777ZM5.12 0.991999H46.112V-1.008H5.12V0.991999ZM45.112 -0.00800133V12.568H47.112V-0.00800133H45.112Z" fill="black" fill-opacity="0.2" mask="url(#path-1-outside-1_476_92)"/>
</svg>
