<svg width="105" height="26" viewBox="0 0 105 26" fill="none" xmlns="http://www.w3.org/2000/svg">
<mask id="path-1-inside-1_546_422" fill="white">
<path d="M0 5C0 2.23858 2.23858 0 5 0H100C102.761 0 105 2.23858 105 5V21C105 23.7614 102.761 26 100 26H5C2.23858 26 0 23.7614 0 21V5Z"/>
</mask>
<path d="M0 5C0 2.23858 2.23858 0 5 0H100C102.761 0 105 2.23858 105 5V21C105 23.7614 102.761 26 100 26H5C2.23858 26 0 23.7614 0 21V5Z" fill="#1E1E1E"/>
<path d="M0 0H105H0ZM105 21C105 24.3137 102.314 27 99 27H6C2.68629 27 0 24.3137 0 21C0 23.2091 2.23858 25 5 25H100C102.761 25 105 23.2091 105 21ZM0 26V0V26ZM105 0V26V0Z" fill="#278BFF" mask="url(#path-1-inside-1_546_422)"/>
<g clip-path="url(#clip0_546_422)">
<path d="M23.5832 16.2083C23.5832 16.4514 23.4866 16.6846 23.3147 16.8565C23.1428 17.0284 22.9096 17.125 22.6665 17.125H15.3332C15.0901 17.125 14.8569 17.0284 14.685 16.8565C14.5131 16.6846 14.4165 16.4514 14.4165 16.2083V9.79167C14.4165 9.54855 14.5131 9.31539 14.685 9.14349C14.8569 8.97158 15.0901 8.875 15.3332 8.875H17.6248L18.5415 10.25H22.6665C22.9096 10.25 23.1428 10.3466 23.3147 10.5185C23.4866 10.6904 23.5832 10.9236 23.5832 11.1667V16.2083Z" stroke="white" stroke-linecap="round" stroke-linejoin="round"/>
<path d="M19 12.5417V15.2917" stroke="white" stroke-linecap="round" stroke-linejoin="round"/>
<path d="M17.625 13.9167H20.375" stroke="white" stroke-linecap="round" stroke-linejoin="round"/>
</g>
<path d="M28.347 8.322H32.076C32.714 8.322 33.209 8.50167 33.561 8.861C33.9203 9.22033 34.1 9.697 34.1 10.291C34.1 10.5843 34.0597 10.8337 33.979 11.039C33.9057 11.2443 33.803 11.413 33.671 11.545C33.5463 11.677 33.396 11.776 33.22 11.842C33.0513 11.9007 32.868 11.9337 32.67 11.941V12.007C32.8533 12.007 33.044 12.04 33.242 12.106C33.4473 12.172 33.6343 12.2783 33.803 12.425C33.9717 12.5643 34.111 12.7477 34.221 12.975C34.3383 13.2023 34.397 13.481 34.397 13.811C34.397 14.1117 34.3457 14.3977 34.243 14.669C34.1477 14.933 34.012 15.164 33.836 15.362C33.66 15.56 33.451 15.7177 33.209 15.835C32.967 15.945 32.703 16 32.417 16H28.347V8.322ZM30.019 14.592H31.944C32.164 14.592 32.3363 14.5333 32.461 14.416C32.593 14.2913 32.659 14.119 32.659 13.899V13.525C32.659 13.305 32.593 13.1363 32.461 13.019C32.3363 12.8943 32.164 12.832 31.944 12.832H30.019V14.592ZM30.019 11.468H31.68C31.9 11.468 32.0723 11.4057 32.197 11.281C32.3217 11.1563 32.384 10.984 32.384 10.764V10.434C32.384 10.214 32.3217 10.0417 32.197 9.917C32.0723 9.79233 31.9 9.73 31.68 9.73H30.019V11.468ZM39.8639 16C39.5706 16 39.3249 15.9083 39.1269 15.725C38.9362 15.5417 38.8152 15.296 38.7639 14.988H38.6979C38.6099 15.362 38.4156 15.648 38.1149 15.846C37.8142 16.0367 37.4439 16.132 37.0039 16.132C36.4246 16.132 35.9809 15.978 35.6729 15.67C35.3649 15.362 35.2109 14.955 35.2109 14.449C35.2109 13.8403 35.4309 13.3893 35.8709 13.096C36.3182 12.7953 36.9232 12.645 37.6859 12.645H38.5989V12.282C38.5989 12.0033 38.5256 11.7833 38.3789 11.622C38.2322 11.4533 37.9866 11.369 37.6419 11.369C37.3192 11.369 37.0626 11.4387 36.8719 11.578C36.6812 11.7173 36.5236 11.875 36.3989 12.051L35.4309 11.193C35.6656 10.8483 35.9589 10.5807 36.3109 10.39C36.6702 10.192 37.1542 10.093 37.7629 10.093C38.5842 10.093 39.2002 10.2727 39.6109 10.632C40.0216 10.9913 40.2269 11.5157 40.2269 12.205V14.735H40.7659V16H39.8639ZM37.6089 14.999C37.8802 14.999 38.1112 14.9403 38.3019 14.823C38.4999 14.7057 38.5989 14.515 38.5989 14.251V13.569H37.8069C37.1689 13.569 36.8499 13.7853 36.8499 14.218V14.383C36.8499 14.5957 36.9159 14.7533 37.0479 14.856C37.1799 14.9513 37.3669 14.999 37.6089 14.999ZM42.6726 9.609C42.3426 9.609 42.1006 9.53567 41.9466 9.389C41.7999 9.235 41.7266 9.04067 41.7266 8.806V8.564C41.7266 8.32933 41.7999 8.13867 41.9466 7.992C42.1006 7.838 42.3426 7.761 42.6726 7.761C43.0026 7.761 43.2409 7.838 43.3876 7.992C43.5416 8.13867 43.6186 8.32933 43.6186 8.564V8.806C43.6186 9.04067 43.5416 9.235 43.3876 9.389C43.2409 9.53567 43.0026 9.609 42.6726 9.609ZM41.8586 10.225H43.4866V16H41.8586V10.225ZM44.4451 16L46.3481 13.063L44.4671 10.225H46.3151L47.3931 12.04H47.4371L48.4821 10.225H50.1981L48.2841 13.118L50.2091 16H48.3611L47.2501 14.119H47.2061L46.1391 16H44.4451ZM55.4293 16C55.136 16 54.8903 15.9083 54.6923 15.725C54.5017 15.5417 54.3807 15.296 54.3293 14.988H54.2633C54.1753 15.362 53.981 15.648 53.6803 15.846C53.3797 16.0367 53.0093 16.132 52.5693 16.132C51.99 16.132 51.5463 15.978 51.2383 15.67C50.9303 15.362 50.7763 14.955 50.7763 14.449C50.7763 13.8403 50.9963 13.3893 51.4363 13.096C51.8837 12.7953 52.4887 12.645 53.2513 12.645H54.1643V12.282C54.1643 12.0033 54.091 11.7833 53.9443 11.622C53.7977 11.4533 53.552 11.369 53.2073 11.369C52.8847 11.369 52.628 11.4387 52.4373 11.578C52.2467 11.7173 52.089 11.875 51.9643 12.051L50.9963 11.193C51.231 10.8483 51.5243 10.5807 51.8763 10.39C52.2357 10.192 52.7197 10.093 53.3283 10.093C54.1497 10.093 54.7657 10.2727 55.1763 10.632C55.587 10.9913 55.7923 11.5157 55.7923 12.205V14.735H56.3313V16H55.4293ZM53.1743 14.999C53.4457 14.999 53.6767 14.9403 53.8673 14.823C54.0653 14.7057 54.1643 14.515 54.1643 14.251V13.569H53.3723C52.7343 13.569 52.4153 13.7853 52.4153 14.218V14.383C52.4153 14.5957 52.4813 14.7533 52.6133 14.856C52.7453 14.9513 52.9323 14.999 53.1743 14.999ZM57.424 16V10.225H59.052V11.479H59.107C59.1364 11.3177 59.1877 11.1637 59.261 11.017C59.3344 10.863 59.4297 10.7273 59.547 10.61C59.6717 10.4927 59.8184 10.401 59.987 10.335C60.1557 10.2617 60.3537 10.225 60.581 10.225H60.867V11.743H60.46C59.9834 11.743 59.6277 11.8053 59.393 11.93C59.1657 12.0547 59.052 12.2857 59.052 12.623V16H57.424ZM72.9005 10.962H72.8675L72.3065 12.084L70.8105 14.801L69.3475 12.095L68.7645 10.885H68.7315V16H67.1585V8.322H68.9295L70.8105 11.919H70.8325L72.6915 8.322H74.4735V16H72.9005V10.962ZM78.4262 16.132C78.0009 16.132 77.6196 16.0623 77.2822 15.923C76.9522 15.7837 76.6699 15.582 76.4352 15.318C76.2079 15.054 76.0319 14.735 75.9072 14.361C75.7826 13.987 75.7202 13.569 75.7202 13.107C75.7202 12.645 75.7826 12.227 75.9072 11.853C76.0319 11.479 76.2079 11.1637 76.4352 10.907C76.6699 10.643 76.9522 10.4413 77.2822 10.302C77.6196 10.1627 78.0009 10.093 78.4262 10.093C78.8516 10.093 79.2292 10.1627 79.5592 10.302C79.8966 10.4413 80.1789 10.643 80.4062 10.907C80.6409 11.1637 80.8206 11.479 80.9452 11.853C81.0699 12.227 81.1322 12.645 81.1322 13.107C81.1322 13.569 81.0699 13.987 80.9452 14.361C80.8206 14.735 80.6409 15.054 80.4062 15.318C80.1789 15.582 79.8966 15.7837 79.5592 15.923C79.2292 16.0623 78.8516 16.132 78.4262 16.132ZM78.4262 14.845C78.7489 14.845 78.9982 14.746 79.1742 14.548C79.3502 14.35 79.4382 14.0677 79.4382 13.701V12.524C79.4382 12.1573 79.3502 11.875 79.1742 11.677C78.9982 11.479 78.7489 11.38 78.4262 11.38C78.1036 11.38 77.8542 11.479 77.6782 11.677C77.5022 11.875 77.4142 12.1573 77.4142 12.524V13.701C77.4142 14.0677 77.5022 14.35 77.6782 14.548C77.8542 14.746 78.1036 14.845 78.4262 14.845ZM82.2922 7.86H83.9202V11.193H83.9752C84.0559 10.8703 84.2392 10.6063 84.5252 10.401C84.8185 10.1957 85.1522 10.093 85.5262 10.093C86.2595 10.093 86.8132 10.3497 87.1872 10.863C87.5612 11.3763 87.7482 12.1243 87.7482 13.107C87.7482 14.0897 87.5612 14.8413 87.1872 15.362C86.8132 15.8753 86.2595 16.132 85.5262 16.132C85.3355 16.132 85.1559 16.1027 84.9872 16.044C84.8185 15.9927 84.6645 15.9193 84.5252 15.824C84.3932 15.7213 84.2795 15.604 84.1842 15.472C84.0889 15.3327 84.0192 15.186 83.9752 15.032H83.9202V16H82.2922V7.86ZM84.9872 14.812C85.2952 14.812 85.5482 14.7057 85.7462 14.493C85.9515 14.273 86.0542 13.9797 86.0542 13.613V12.612C86.0542 12.2453 85.9515 11.9557 85.7462 11.743C85.5482 11.523 85.2952 11.413 84.9872 11.413C84.6792 11.413 84.4225 11.49 84.2172 11.644C84.0192 11.7907 83.9202 11.996 83.9202 12.26V13.965C83.9202 14.229 84.0192 14.438 84.2172 14.592C84.4225 14.7387 84.6792 14.812 84.9872 14.812ZM89.7986 9.609C89.4686 9.609 89.2266 9.53567 89.0726 9.389C88.9259 9.235 88.8526 9.04067 88.8526 8.806V8.564C88.8526 8.32933 88.9259 8.13867 89.0726 7.992C89.2266 7.838 89.4686 7.761 89.7986 7.761C90.1286 7.761 90.3669 7.838 90.5136 7.992C90.6676 8.13867 90.7446 8.32933 90.7446 8.564V8.806C90.7446 9.04067 90.6676 9.235 90.5136 9.389C90.3669 9.53567 90.1286 9.609 89.7986 9.609ZM88.9846 10.225H90.6126V16H88.9846V10.225Z" fill="white"/>
<defs>
<clipPath id="clip0_546_422">
<rect width="11" height="11" fill="white" transform="translate(13.5 7.5)"/>
</clipPath>
</defs>
</svg>
