<svg width="105" height="26" viewBox="0 0 105 26" fill="none" xmlns="http://www.w3.org/2000/svg">
<mask id="path-1-inside-1_546_443" fill="white">
<path d="M0 5C0 2.23858 2.23858 0 5 0H100C102.761 0 105 2.23858 105 5V21C105 23.7614 102.761 26 100 26H5C2.23858 26 0 23.7614 0 21V5Z"/>
</mask>
<path d="M0 5C0 2.23858 2.23858 0 5 0H100C102.761 0 105 2.23858 105 5V21C105 23.7614 102.761 26 100 26H5C2.23858 26 0 23.7614 0 21V5Z" fill="#1E1E1E"/>
<path d="M0 0H105H0ZM105 21C105 24.3137 102.314 27 99 27H6C2.68629 27 0 24.3137 0 21C0 23.2091 2.23858 25 5 25H100C102.761 25 105 23.2091 105 21ZM0 26V0V26ZM105 0V26V0Z" fill="#00B934" mask="url(#path-1-inside-1_546_443)"/>
<g clip-path="url(#clip0_546_443)">
<path d="M22.5834 16.2083C22.5834 16.4514 22.4868 16.6846 22.3149 16.8565C22.143 17.0284 21.9099 17.125 21.6667 17.125H14.3334C14.0903 17.125 13.8571 17.0284 13.6852 16.8565C13.5133 16.6846 13.4167 16.4514 13.4167 16.2083V9.79167C13.4167 9.54855 13.5133 9.31539 13.6852 9.14349C13.8571 8.97158 14.0903 8.875 14.3334 8.875H16.6251L17.5417 10.25H21.6667C21.9099 10.25 22.143 10.3466 22.3149 10.5185C22.4868 10.6904 22.5834 10.9236 22.5834 11.1667V16.2083Z" stroke="white" stroke-linecap="round" stroke-linejoin="round"/>
<path d="M18 12.5417V15.2917" stroke="white" stroke-linecap="round" stroke-linejoin="round"/>
<path d="M16.625 13.9167H19.375" stroke="white" stroke-linecap="round" stroke-linejoin="round"/>
</g>
<path d="M27.347 8.322H31.076C31.714 8.322 32.209 8.50167 32.561 8.861C32.9203 9.22033 33.1 9.697 33.1 10.291C33.1 10.5843 33.0597 10.8337 32.979 11.039C32.9057 11.2443 32.803 11.413 32.671 11.545C32.5463 11.677 32.396 11.776 32.22 11.842C32.0513 11.9007 31.868 11.9337 31.67 11.941V12.007C31.8533 12.007 32.044 12.04 32.242 12.106C32.4473 12.172 32.6343 12.2783 32.803 12.425C32.9717 12.5643 33.111 12.7477 33.221 12.975C33.3383 13.2023 33.397 13.481 33.397 13.811C33.397 14.1117 33.3457 14.3977 33.243 14.669C33.1477 14.933 33.012 15.164 32.836 15.362C32.66 15.56 32.451 15.7177 32.209 15.835C31.967 15.945 31.703 16 31.417 16H27.347V8.322ZM29.019 14.592H30.944C31.164 14.592 31.3363 14.5333 31.461 14.416C31.593 14.2913 31.659 14.119 31.659 13.899V13.525C31.659 13.305 31.593 13.1363 31.461 13.019C31.3363 12.8943 31.164 12.832 30.944 12.832H29.019V14.592ZM29.019 11.468H30.68C30.9 11.468 31.0723 11.4057 31.197 11.281C31.3217 11.1563 31.384 10.984 31.384 10.764V10.434C31.384 10.214 31.3217 10.0417 31.197 9.917C31.0723 9.79233 30.9 9.73 30.68 9.73H29.019V11.468ZM38.8639 16C38.5706 16 38.3249 15.9083 38.1269 15.725C37.9362 15.5417 37.8152 15.296 37.7639 14.988H37.6979C37.6099 15.362 37.4156 15.648 37.1149 15.846C36.8142 16.0367 36.4439 16.132 36.0039 16.132C35.4246 16.132 34.9809 15.978 34.6729 15.67C34.3649 15.362 34.2109 14.955 34.2109 14.449C34.2109 13.8403 34.4309 13.3893 34.8709 13.096C35.3182 12.7953 35.9232 12.645 36.6859 12.645H37.5989V12.282C37.5989 12.0033 37.5256 11.7833 37.3789 11.622C37.2322 11.4533 36.9866 11.369 36.6419 11.369C36.3192 11.369 36.0626 11.4387 35.8719 11.578C35.6812 11.7173 35.5236 11.875 35.3989 12.051L34.4309 11.193C34.6656 10.8483 34.9589 10.5807 35.3109 10.39C35.6702 10.192 36.1542 10.093 36.7629 10.093C37.5842 10.093 38.2002 10.2727 38.6109 10.632C39.0216 10.9913 39.2269 11.5157 39.2269 12.205V14.735H39.7659V16H38.8639ZM36.6089 14.999C36.8802 14.999 37.1112 14.9403 37.3019 14.823C37.4999 14.7057 37.5989 14.515 37.5989 14.251V13.569H36.8069C36.1689 13.569 35.8499 13.7853 35.8499 14.218V14.383C35.8499 14.5957 35.9159 14.7533 36.0479 14.856C36.1799 14.9513 36.3669 14.999 36.6089 14.999ZM41.6726 9.609C41.3426 9.609 41.1006 9.53567 40.9466 9.389C40.7999 9.235 40.7266 9.04067 40.7266 8.806V8.564C40.7266 8.32933 40.7999 8.13867 40.9466 7.992C41.1006 7.838 41.3426 7.761 41.6726 7.761C42.0026 7.761 42.2409 7.838 42.3876 7.992C42.5416 8.13867 42.6186 8.32933 42.6186 8.564V8.806C42.6186 9.04067 42.5416 9.235 42.3876 9.389C42.2409 9.53567 42.0026 9.609 41.6726 9.609ZM40.8586 10.225H42.4866V16H40.8586V10.225ZM43.4451 16L45.3481 13.063L43.4671 10.225H45.3151L46.3931 12.04H46.4371L47.4821 10.225H49.1981L47.2841 13.118L49.2091 16H47.3611L46.2501 14.119H46.2061L45.1391 16H43.4451ZM54.4293 16C54.136 16 53.8903 15.9083 53.6923 15.725C53.5017 15.5417 53.3807 15.296 53.3293 14.988H53.2633C53.1753 15.362 52.981 15.648 52.6803 15.846C52.3797 16.0367 52.0093 16.132 51.5693 16.132C50.99 16.132 50.5463 15.978 50.2383 15.67C49.9303 15.362 49.7763 14.955 49.7763 14.449C49.7763 13.8403 49.9963 13.3893 50.4363 13.096C50.8837 12.7953 51.4887 12.645 52.2513 12.645H53.1643V12.282C53.1643 12.0033 53.091 11.7833 52.9443 11.622C52.7977 11.4533 52.552 11.369 52.2073 11.369C51.8847 11.369 51.628 11.4387 51.4373 11.578C51.2467 11.7173 51.089 11.875 50.9643 12.051L49.9963 11.193C50.231 10.8483 50.5243 10.5807 50.8763 10.39C51.2357 10.192 51.7197 10.093 52.3283 10.093C53.1497 10.093 53.7657 10.2727 54.1763 10.632C54.587 10.9913 54.7923 11.5157 54.7923 12.205V14.735H55.3313V16H54.4293ZM52.1743 14.999C52.4457 14.999 52.6767 14.9403 52.8673 14.823C53.0653 14.7057 53.1643 14.515 53.1643 14.251V13.569H52.3723C51.7343 13.569 51.4153 13.7853 51.4153 14.218V14.383C51.4153 14.5957 51.4813 14.7533 51.6133 14.856C51.7453 14.9513 51.9323 14.999 52.1743 14.999ZM56.424 16V10.225H58.052V11.479H58.107C58.1364 11.3177 58.1877 11.1637 58.261 11.017C58.3344 10.863 58.4297 10.7273 58.547 10.61C58.6717 10.4927 58.8184 10.401 58.987 10.335C59.1557 10.2617 59.3537 10.225 59.581 10.225H59.867V11.743H59.46C58.9834 11.743 58.6277 11.8053 58.393 11.93C58.1657 12.0547 58.052 12.2857 58.052 12.623V16H56.424ZM68.4795 16.132C68.0395 16.132 67.6472 16.0623 67.3025 15.923C66.9579 15.7763 66.6645 15.5747 66.4225 15.318C66.1879 15.054 66.0082 14.735 65.8835 14.361C65.7662 13.987 65.7075 13.569 65.7075 13.107C65.7075 12.6523 65.7662 12.2417 65.8835 11.875C66.0009 11.501 66.1732 11.182 66.4005 10.918C66.6352 10.654 66.9212 10.4523 67.2585 10.313C67.5959 10.1663 67.9809 10.093 68.4135 10.093C68.8902 10.093 69.2972 10.1737 69.6345 10.335C69.9792 10.4963 70.2579 10.7127 70.4705 10.984C70.6905 11.2553 70.8482 11.5707 70.9435 11.93C71.0462 12.282 71.0975 12.6523 71.0975 13.041V13.525H67.3905V13.613C67.3905 13.9943 67.4932 14.2987 67.6985 14.526C67.9039 14.746 68.2265 14.856 68.6665 14.856C69.0039 14.856 69.2789 14.79 69.4915 14.658C69.7042 14.5187 69.9022 14.3537 70.0855 14.163L70.8995 15.175C70.6429 15.4757 70.3055 15.7103 69.8875 15.879C69.4769 16.0477 69.0075 16.132 68.4795 16.132ZM68.4465 11.292C68.1165 11.292 67.8562 11.402 67.6655 11.622C67.4822 11.8347 67.3905 12.1207 67.3905 12.48V12.568H69.4145V12.469C69.4145 12.117 69.3339 11.8347 69.1725 11.622C69.0185 11.402 68.7765 11.292 68.4465 11.292ZM72.3353 16V8.322H75.9653C76.3246 8.322 76.6473 8.38433 76.9333 8.509C77.2193 8.62633 77.4613 8.79133 77.6593 9.004C77.8646 9.21667 78.0223 9.477 78.1323 9.785C78.2423 10.0857 78.2973 10.4157 78.2973 10.775C78.2973 11.1417 78.2423 11.4753 78.1323 11.776C78.0223 12.0767 77.8646 12.3333 77.6593 12.546C77.4613 12.7587 77.2193 12.9273 76.9333 13.052C76.6473 13.1693 76.3246 13.228 75.9653 13.228H74.0073V16H72.3353ZM74.0073 11.776H75.7673C76.0166 11.776 76.2109 11.7137 76.3503 11.589C76.4969 11.457 76.5703 11.2663 76.5703 11.017V10.533C76.5703 10.2837 76.4969 10.0967 76.3503 9.972C76.2109 9.84 76.0166 9.774 75.7673 9.774H74.0073V11.776ZM82.876 15.032H82.821C82.7697 15.1787 82.7 15.318 82.612 15.45C82.5314 15.582 82.425 15.6993 82.293 15.802C82.161 15.9047 82.0034 15.9853 81.82 16.044C81.644 16.1027 81.4387 16.132 81.204 16.132C80.61 16.132 80.159 15.9377 79.851 15.549C79.5504 15.153 79.4 14.5883 79.4 13.855V10.225H81.028V13.712C81.028 14.064 81.0904 14.3353 81.215 14.526C81.3397 14.7167 81.5524 14.812 81.853 14.812C81.9777 14.812 82.1024 14.7937 82.227 14.757C82.3517 14.7203 82.4617 14.669 82.557 14.603C82.6524 14.5297 82.7294 14.4417 82.788 14.339C82.8467 14.2363 82.876 14.1153 82.876 13.976V10.225H84.504V16H82.876V15.032ZM86.0188 7.86H87.6468V11.193H87.7018C87.7824 10.8703 87.9658 10.6063 88.2518 10.401C88.5451 10.1957 88.8788 10.093 89.2528 10.093C89.9861 10.093 90.5398 10.3497 90.9138 10.863C91.2878 11.3763 91.4748 12.1243 91.4748 13.107C91.4748 14.0897 91.2878 14.8413 90.9138 15.362C90.5398 15.8753 89.9861 16.132 89.2528 16.132C89.0621 16.132 88.8824 16.1027 88.7138 16.044C88.5451 15.9927 88.3911 15.9193 88.2518 15.824C88.1198 15.7213 88.0061 15.604 87.9108 15.472C87.8154 15.3327 87.7458 15.186 87.7018 15.032H87.6468V16H86.0188V7.86ZM88.7138 14.812C89.0218 14.812 89.2748 14.7057 89.4728 14.493C89.6781 14.273 89.7808 13.9797 89.7808 13.613V12.612C89.7808 12.2453 89.6781 11.9557 89.4728 11.743C89.2748 11.523 89.0218 11.413 88.7138 11.413C88.4058 11.413 88.1491 11.49 87.9438 11.644C87.7458 11.7907 87.6468 11.996 87.6468 12.26V13.965C87.6468 14.229 87.7458 14.438 87.9438 14.592C88.1491 14.7387 88.4058 14.812 88.7138 14.812Z" fill="white"/>
<defs>
<clipPath id="clip0_546_443">
<rect width="11" height="11" fill="white" transform="translate(12.5 7.5)"/>
</clipPath>
</defs>
</svg>
