<svg width="105" height="26" viewBox="0 0 105 26" fill="none" xmlns="http://www.w3.org/2000/svg">
<mask id="path-1-inside-1_546_275" fill="white">
<path d="M0 5C0 2.23858 2.23858 0 5 0H100C102.761 0 105 2.23858 105 5V21C105 23.7614 102.761 26 100 26H5C2.23858 26 0 23.7614 0 21V5Z"/>
</mask>
<path d="M0 5C0 2.23858 2.23858 0 5 0H100C102.761 0 105 2.23858 105 5V21C105 23.7614 102.761 26 100 26H5C2.23858 26 0 23.7614 0 21V5Z" fill="#1E1E1E"/>
<path d="M0 0H105H0ZM105 21C105 24.3137 102.314 27 99 27H6C2.68629 27 0 24.3137 0 21C0 23.2091 2.23858 25 5 25H100C102.761 25 105 23.2091 105 21ZM0 26V0V26ZM105 0V26V0Z" fill="#FF2727" mask="url(#path-1-inside-1_546_275)"/>
<path d="M25.0832 16.2083C25.0832 16.4514 24.9866 16.6846 24.8147 16.8565C24.6428 17.0284 24.4096 17.125 24.1665 17.125H16.8332C16.5901 17.125 16.3569 17.0284 16.185 16.8565C16.0131 16.6846 15.9165 16.4514 15.9165 16.2083V9.79167C15.9165 9.54855 16.0131 9.31539 16.185 9.14349C16.3569 8.97158 16.5901 8.875 16.8332 8.875H19.1248L20.0415 10.25H24.1665C24.4096 10.25 24.6428 10.3466 24.8147 10.5185C24.9866 10.6904 25.0832 10.9236 25.0832 11.1667V16.2083Z" stroke="white" stroke-linecap="round" stroke-linejoin="round"/>
<path d="M20.5 12.5417V15.2917" stroke="white" stroke-linecap="round" stroke-linejoin="round"/>
<path d="M19.125 13.9167H21.875" stroke="white" stroke-linecap="round" stroke-linejoin="round"/>
<path d="M29.847 8.322H33.576C34.214 8.322 34.709 8.50167 35.061 8.861C35.4203 9.22033 35.6 9.697 35.6 10.291C35.6 10.5843 35.5597 10.8337 35.479 11.039C35.4057 11.2443 35.303 11.413 35.171 11.545C35.0463 11.677 34.896 11.776 34.72 11.842C34.5513 11.9007 34.368 11.9337 34.17 11.941V12.007C34.3533 12.007 34.544 12.04 34.742 12.106C34.9473 12.172 35.1343 12.2783 35.303 12.425C35.4717 12.5643 35.611 12.7477 35.721 12.975C35.8383 13.2023 35.897 13.481 35.897 13.811C35.897 14.1117 35.8457 14.3977 35.743 14.669C35.6477 14.933 35.512 15.164 35.336 15.362C35.16 15.56 34.951 15.7177 34.709 15.835C34.467 15.945 34.203 16 33.917 16H29.847V8.322ZM31.519 14.592H33.444C33.664 14.592 33.8363 14.5333 33.961 14.416C34.093 14.2913 34.159 14.119 34.159 13.899V13.525C34.159 13.305 34.093 13.1363 33.961 13.019C33.8363 12.8943 33.664 12.832 33.444 12.832H31.519V14.592ZM31.519 11.468H33.18C33.4 11.468 33.5723 11.4057 33.697 11.281C33.8217 11.1563 33.884 10.984 33.884 10.764V10.434C33.884 10.214 33.8217 10.0417 33.697 9.917C33.5723 9.79233 33.4 9.73 33.18 9.73H31.519V11.468ZM41.3639 16C41.0706 16 40.8249 15.9083 40.6269 15.725C40.4362 15.5417 40.3152 15.296 40.2639 14.988H40.1979C40.1099 15.362 39.9156 15.648 39.6149 15.846C39.3142 16.0367 38.9439 16.132 38.5039 16.132C37.9246 16.132 37.4809 15.978 37.1729 15.67C36.8649 15.362 36.7109 14.955 36.7109 14.449C36.7109 13.8403 36.9309 13.3893 37.3709 13.096C37.8182 12.7953 38.4232 12.645 39.1859 12.645H40.0989V12.282C40.0989 12.0033 40.0256 11.7833 39.8789 11.622C39.7322 11.4533 39.4866 11.369 39.1419 11.369C38.8192 11.369 38.5626 11.4387 38.3719 11.578C38.1812 11.7173 38.0236 11.875 37.8989 12.051L36.9309 11.193C37.1656 10.8483 37.4589 10.5807 37.8109 10.39C38.1702 10.192 38.6542 10.093 39.2629 10.093C40.0842 10.093 40.7002 10.2727 41.1109 10.632C41.5216 10.9913 41.7269 11.5157 41.7269 12.205V14.735H42.2659V16H41.3639ZM39.1089 14.999C39.3802 14.999 39.6112 14.9403 39.8019 14.823C39.9999 14.7057 40.0989 14.515 40.0989 14.251V13.569H39.3069C38.6689 13.569 38.3499 13.7853 38.3499 14.218V14.383C38.3499 14.5957 38.4159 14.7533 38.5479 14.856C38.6799 14.9513 38.8669 14.999 39.1089 14.999ZM44.1726 9.609C43.8426 9.609 43.6006 9.53567 43.4466 9.389C43.2999 9.235 43.2266 9.04067 43.2266 8.806V8.564C43.2266 8.32933 43.2999 8.13867 43.4466 7.992C43.6006 7.838 43.8426 7.761 44.1726 7.761C44.5026 7.761 44.7409 7.838 44.8876 7.992C45.0416 8.13867 45.1186 8.32933 45.1186 8.564V8.806C45.1186 9.04067 45.0416 9.235 44.8876 9.389C44.7409 9.53567 44.5026 9.609 44.1726 9.609ZM43.3586 10.225H44.9866V16H43.3586V10.225ZM45.9451 16L47.8481 13.063L45.9671 10.225H47.8151L48.8931 12.04H48.9371L49.9821 10.225H51.6981L49.7841 13.118L51.7091 16H49.8611L48.7501 14.119H48.7061L47.6391 16H45.9451ZM56.9293 16C56.636 16 56.3903 15.9083 56.1923 15.725C56.0017 15.5417 55.8807 15.296 55.8293 14.988H55.7633C55.6753 15.362 55.481 15.648 55.1803 15.846C54.8797 16.0367 54.5093 16.132 54.0693 16.132C53.49 16.132 53.0463 15.978 52.7383 15.67C52.4303 15.362 52.2763 14.955 52.2763 14.449C52.2763 13.8403 52.4963 13.3893 52.9363 13.096C53.3837 12.7953 53.9887 12.645 54.7513 12.645H55.6643V12.282C55.6643 12.0033 55.591 11.7833 55.4443 11.622C55.2977 11.4533 55.052 11.369 54.7073 11.369C54.3847 11.369 54.128 11.4387 53.9373 11.578C53.7467 11.7173 53.589 11.875 53.4643 12.051L52.4963 11.193C52.731 10.8483 53.0243 10.5807 53.3763 10.39C53.7357 10.192 54.2197 10.093 54.8283 10.093C55.6497 10.093 56.2657 10.2727 56.6763 10.632C57.087 10.9913 57.2923 11.5157 57.2923 12.205V14.735H57.8313V16H56.9293ZM54.6743 14.999C54.9457 14.999 55.1767 14.9403 55.3673 14.823C55.5653 14.7057 55.6643 14.515 55.6643 14.251V13.569H54.8723C54.2343 13.569 53.9153 13.7853 53.9153 14.218V14.383C53.9153 14.5957 53.9813 14.7533 54.1133 14.856C54.2453 14.9513 54.4323 14.999 54.6743 14.999ZM58.924 16V10.225H60.552V11.479H60.607C60.6364 11.3177 60.6877 11.1637 60.761 11.017C60.8344 10.863 60.9297 10.7273 61.047 10.61C61.1717 10.4927 61.3184 10.401 61.487 10.335C61.6557 10.2617 61.8537 10.225 62.081 10.225H62.367V11.743H61.96C61.4834 11.743 61.1277 11.8053 60.893 11.93C60.6657 12.0547 60.552 12.2857 60.552 12.623V16H58.924ZM68.6585 16V8.322H72.2885C72.6479 8.322 72.9705 8.38433 73.2565 8.509C73.5425 8.62633 73.7845 8.79133 73.9825 9.004C74.1879 9.21667 74.3455 9.477 74.4555 9.785C74.5655 10.0857 74.6205 10.4157 74.6205 10.775C74.6205 11.1417 74.5655 11.4753 74.4555 11.776C74.3455 12.0767 74.1879 12.3333 73.9825 12.546C73.7845 12.7587 73.5425 12.9273 73.2565 13.052C72.9705 13.1693 72.6479 13.228 72.2885 13.228H70.3305V16H68.6585ZM70.3305 11.776H72.0905C72.3399 11.776 72.5342 11.7137 72.6735 11.589C72.8202 11.457 72.8935 11.2663 72.8935 11.017V10.533C72.8935 10.2837 72.8202 10.0967 72.6735 9.972C72.5342 9.84 72.3399 9.774 72.0905 9.774H70.3305V11.776ZM75.8773 8.322H78.7703C79.2763 8.322 79.7383 8.40267 80.1563 8.564C80.5743 8.72533 80.9299 8.96733 81.2233 9.29C81.5166 9.60533 81.7439 10.005 81.9053 10.489C82.0666 10.9657 82.1473 11.523 82.1473 12.161C82.1473 12.799 82.0666 13.36 81.9053 13.844C81.7439 14.3207 81.5166 14.7203 81.2233 15.043C80.9299 15.3583 80.5743 15.5967 80.1563 15.758C79.7383 15.9193 79.2763 16 78.7703 16H75.8773V8.322ZM78.7703 14.515C79.2689 14.515 79.6613 14.3757 79.9473 14.097C80.2333 13.8183 80.3763 13.371 80.3763 12.755V11.567C80.3763 10.951 80.2333 10.5037 79.9473 10.225C79.6613 9.94633 79.2689 9.807 78.7703 9.807H77.5493V14.515H78.7703ZM83.5472 16V8.322H88.6402V9.807H85.2192V11.38H88.1342V12.854H85.2192V16H83.5472Z" fill="white"/>
</svg>
