<svg width="86" height="26" viewBox="0 0 86 26" fill="none" xmlns="http://www.w3.org/2000/svg">
<mask id="path-1-inside-1_546_431" fill="white">
<path d="M0 5C0 2.23858 2.23858 0 5 0H81C83.7614 0 86 2.23858 86 5V21C86 23.7614 83.7614 26 81 26H5C2.23858 26 0 23.7614 0 21V5Z"/>
</mask>
<path d="M0 5C0 2.23858 2.23858 0 5 0H81C83.7614 0 86 2.23858 86 5V21C86 23.7614 83.7614 26 81 26H5C2.23858 26 0 23.7614 0 21V5Z" fill="#1E1E1E"/>
<path d="M0 0H86H0ZM86 21C86 24.3137 83.3137 27 80 27H6C2.68629 27 0 24.3137 0 21C0 23.2091 2.23858 25 5 25H81C83.7614 25 86 23.2091 86 21ZM0 26V0V26ZM86 0V26V0Z" fill="#9747FF" mask="url(#path-1-inside-1_546_431)"/>
<g clip-path="url(#clip0_546_431)">
<path d="M19.5832 16.2083C19.5832 16.4514 19.4866 16.6846 19.3147 16.8565C19.1428 17.0284 18.9096 17.125 18.6665 17.125H11.3332C11.0901 17.125 10.8569 17.0284 10.685 16.8565C10.5131 16.6846 10.4165 16.4514 10.4165 16.2083V9.79167C10.4165 9.54855 10.5131 9.31539 10.685 9.14349C10.8569 8.97158 11.0901 8.875 11.3332 8.875H13.6248L14.5415 10.25H18.6665C18.9096 10.25 19.1428 10.3466 19.3147 10.5185C19.4866 10.6904 19.5832 10.9236 19.5832 11.1667V16.2083Z" stroke="white" stroke-linecap="round" stroke-linejoin="round"/>
<path d="M15 12.5417V15.2917" stroke="white" stroke-linecap="round" stroke-linejoin="round"/>
<path d="M13.625 13.9167H16.375" stroke="white" stroke-linecap="round" stroke-linejoin="round"/>
</g>
<path d="M24.347 16V8.322H26.019V14.515H28.945V16H24.347ZM32.3936 16.132C31.9536 16.132 31.5613 16.0623 31.2166 15.923C30.8719 15.7763 30.5786 15.5747 30.3366 15.318C30.1019 15.054 29.9223 14.735 29.7976 14.361C29.6803 13.987 29.6216 13.569 29.6216 13.107C29.6216 12.6523 29.6803 12.2417 29.7976 11.875C29.9149 11.501 30.0873 11.182 30.3146 10.918C30.5493 10.654 30.8353 10.4523 31.1726 10.313C31.5099 10.1663 31.8949 10.093 32.3276 10.093C32.8043 10.093 33.2113 10.1737 33.5486 10.335C33.8933 10.4963 34.1719 10.7127 34.3846 10.984C34.6046 11.2553 34.7623 11.5707 34.8576 11.93C34.9603 12.282 35.0116 12.6523 35.0116 13.041V13.525H31.3046V13.613C31.3046 13.9943 31.4073 14.2987 31.6126 14.526C31.8179 14.746 32.1406 14.856 32.5806 14.856C32.9179 14.856 33.1929 14.79 33.4056 14.658C33.6183 14.5187 33.8163 14.3537 33.9996 14.163L34.8136 15.175C34.5569 15.4757 34.2196 15.7103 33.8016 15.879C33.3909 16.0477 32.9216 16.132 32.3936 16.132ZM32.3606 11.292C32.0306 11.292 31.7703 11.402 31.5796 11.622C31.3963 11.8347 31.3046 12.1207 31.3046 12.48V12.568H33.3286V12.469C33.3286 12.117 33.2479 11.8347 33.0866 11.622C32.9326 11.402 32.6906 11.292 32.3606 11.292ZM36.1613 16V10.225H37.7893V11.479H37.8443C37.8737 11.3177 37.925 11.1637 37.9983 11.017C38.0717 10.863 38.167 10.7273 38.2843 10.61C38.409 10.4927 38.5557 10.401 38.7243 10.335C38.893 10.2617 39.091 10.225 39.3183 10.225H39.6043V11.743H39.1973C38.7207 11.743 38.365 11.8053 38.1303 11.93C37.903 12.0547 37.7893 12.2857 37.7893 12.623V16H36.1613ZM46.3762 16.132C45.8702 16.132 45.4082 16.0477 44.9902 15.879C44.5722 15.7103 44.2166 15.461 43.9232 15.131C43.6299 14.7937 43.4026 14.3793 43.2412 13.888C43.0799 13.3893 42.9992 12.8137 42.9992 12.161C42.9992 11.5083 43.0799 10.9363 43.2412 10.445C43.4026 9.94633 43.6299 9.532 43.9232 9.202C44.2166 8.86467 44.5722 8.61167 44.9902 8.443C45.4082 8.27433 45.8702 8.19 46.3762 8.19C46.8822 8.19 47.3442 8.27433 47.7622 8.443C48.1802 8.61167 48.5359 8.86467 48.8292 9.202C49.1226 9.532 49.3499 9.94633 49.5112 10.445C49.6726 10.9363 49.7532 11.5083 49.7532 12.161C49.7532 12.8137 49.6726 13.3893 49.5112 13.888C49.3499 14.3793 49.1226 14.7937 48.8292 15.131C48.5359 15.461 48.1802 15.7103 47.7622 15.879C47.3442 16.0477 46.8822 16.132 46.3762 16.132ZM46.3762 14.647C46.8822 14.647 47.2746 14.482 47.5532 14.152C47.8392 13.822 47.9822 13.349 47.9822 12.733V11.589C47.9822 10.973 47.8392 10.5 47.5532 10.17C47.2746 9.84 46.8822 9.675 46.3762 9.675C45.8702 9.675 45.4742 9.84 45.1882 10.17C44.9096 10.5 44.7702 10.973 44.7702 11.589V12.733C44.7702 13.349 44.9096 13.822 45.1882 14.152C45.4742 14.482 45.8702 14.647 46.3762 14.647ZM51.0608 16V10.225H52.6888V11.204H52.7548C52.8574 10.9033 53.0371 10.643 53.2938 10.423C53.5504 10.203 53.9061 10.093 54.3608 10.093C54.9548 10.093 55.4021 10.291 55.7028 10.687C56.0108 11.083 56.1648 11.6477 56.1648 12.381V16H54.5368V12.513C54.5368 12.139 54.4781 11.864 54.3608 11.688C54.2434 11.5047 54.0344 11.413 53.7338 11.413C53.6018 11.413 53.4734 11.4313 53.3488 11.468C53.2241 11.4973 53.1104 11.5487 53.0078 11.622C52.9124 11.6953 52.8354 11.787 52.7768 11.897C52.7181 11.9997 52.6888 12.1207 52.6888 12.26V16H51.0608ZM59.2305 16C58.6732 16 58.2625 15.8643 57.9985 15.593C57.7418 15.3217 57.6135 14.9293 57.6135 14.416V7.86H59.2415V14.735H59.9675V16H59.2305ZM61.7576 9.609C61.4276 9.609 61.1856 9.53567 61.0316 9.389C60.8849 9.235 60.8116 9.04067 60.8116 8.806V8.564C60.8116 8.32933 60.8849 8.13867 61.0316 7.992C61.1856 7.838 61.4276 7.761 61.7576 7.761C62.0876 7.761 62.3259 7.838 62.4726 7.992C62.6266 8.13867 62.7036 8.32933 62.7036 8.564V8.806C62.7036 9.04067 62.6266 9.235 62.4726 9.389C62.3259 9.53567 62.0876 9.609 61.7576 9.609ZM60.9436 10.225H62.5716V16H60.9436V10.225ZM64.091 16V10.225H65.719V11.204H65.785C65.8877 10.9033 66.0674 10.643 66.324 10.423C66.5807 10.203 66.9364 10.093 67.391 10.093C67.985 10.093 68.4324 10.291 68.733 10.687C69.041 11.083 69.195 11.6477 69.195 12.381V16H67.567V12.513C67.567 12.139 67.5084 11.864 67.391 11.688C67.2737 11.5047 67.0647 11.413 66.764 11.413C66.632 11.413 66.5037 11.4313 66.379 11.468C66.2544 11.4973 66.1407 11.5487 66.038 11.622C65.9427 11.6953 65.8657 11.787 65.807 11.897C65.7484 11.9997 65.719 12.1207 65.719 12.26V16H64.091ZM73.0528 16.132C72.6128 16.132 72.2204 16.0623 71.8758 15.923C71.5311 15.7763 71.2378 15.5747 70.9958 15.318C70.7611 15.054 70.5814 14.735 70.4568 14.361C70.3394 13.987 70.2808 13.569 70.2808 13.107C70.2808 12.6523 70.3394 12.2417 70.4568 11.875C70.5741 11.501 70.7464 11.182 70.9738 10.918C71.2084 10.654 71.4944 10.4523 71.8318 10.313C72.1691 10.1663 72.5541 10.093 72.9868 10.093C73.4634 10.093 73.8704 10.1737 74.2078 10.335C74.5524 10.4963 74.8311 10.7127 75.0438 10.984C75.2638 11.2553 75.4214 11.5707 75.5168 11.93C75.6194 12.282 75.6708 12.6523 75.6708 13.041V13.525H71.9638V13.613C71.9638 13.9943 72.0664 14.2987 72.2718 14.526C72.4771 14.746 72.7998 14.856 73.2398 14.856C73.5771 14.856 73.8521 14.79 74.0648 14.658C74.2774 14.5187 74.4754 14.3537 74.6588 14.163L75.4728 15.175C75.2161 15.4757 74.8788 15.7103 74.4608 15.879C74.0501 16.0477 73.5808 16.132 73.0528 16.132ZM73.0198 11.292C72.6898 11.292 72.4294 11.402 72.2388 11.622C72.0554 11.8347 71.9638 12.1207 71.9638 12.48V12.568H73.9878V12.469C73.9878 12.117 73.9071 11.8347 73.7458 11.622C73.5918 11.402 73.3498 11.292 73.0198 11.292Z" fill="white"/>
<defs>
<clipPath id="clip0_546_431">
<rect width="11" height="11" fill="white" transform="translate(9.5 7.5)"/>
</clipPath>
</defs>
</svg>
