<svg width="49" height="69" viewBox="0 0 49 69" fill="none" xmlns="http://www.w3.org/2000/svg">
<mask id="path-1-outside-1_467_7" maskUnits="userSpaceOnUse" x="-2" y="-1" width="52" height="71" fill="black">
<rect fill="white" x="-2" y="-1" width="52" height="71"/>
<path d="M48.896 69H1.472V55.848L22.112 38.184C23.968 36.584 25.536 35.144 26.816 33.864C28.096 32.52 29.12 31.24 29.888 30.024C30.72 28.744 31.296 27.496 31.616 26.28C32 25.064 32.192 23.752 32.192 22.344V21C32.192 19.72 31.936 18.6 31.424 17.64C30.912 16.68 30.24 15.88 29.408 15.24C28.576 14.6 27.616 14.12 26.528 13.8C25.504 13.48 24.448 13.32 23.36 13.32C21.76 13.32 20.352 13.576 19.136 14.088C17.984 14.6 16.96 15.304 16.064 16.2C15.232 17.032 14.528 18.024 13.952 19.176C13.376 20.264 12.928 21.448 12.608 22.728L0.0320003 17.928C0.8 15.624 1.856 13.448 3.2 11.4C4.544 9.288 6.208 7.464 8.192 5.928C10.24 4.328 12.64 3.08 15.392 2.184C18.144 1.288 21.248 0.839996 24.704 0.839996C28.352 0.839996 31.584 1.352 34.4 2.376C37.216 3.4 39.584 4.808 41.504 6.6C43.488 8.392 44.992 10.536 46.016 13.032C47.04 15.464 47.552 18.12 47.552 21C47.552 23.88 47.072 26.504 46.112 28.872C45.152 31.24 43.84 33.48 42.176 35.592C40.576 37.64 38.688 39.592 36.512 41.448C34.336 43.304 32.064 45.192 29.696 47.112L17.216 56.904H48.896V69Z"/>
</mask>
<path d="M48.896 69H1.472V55.848L22.112 38.184C23.968 36.584 25.536 35.144 26.816 33.864C28.096 32.52 29.12 31.24 29.888 30.024C30.72 28.744 31.296 27.496 31.616 26.28C32 25.064 32.192 23.752 32.192 22.344V21C32.192 19.72 31.936 18.6 31.424 17.64C30.912 16.68 30.24 15.88 29.408 15.24C28.576 14.6 27.616 14.12 26.528 13.8C25.504 13.48 24.448 13.32 23.36 13.32C21.76 13.32 20.352 13.576 19.136 14.088C17.984 14.6 16.96 15.304 16.064 16.2C15.232 17.032 14.528 18.024 13.952 19.176C13.376 20.264 12.928 21.448 12.608 22.728L0.0320003 17.928C0.8 15.624 1.856 13.448 3.2 11.4C4.544 9.288 6.208 7.464 8.192 5.928C10.24 4.328 12.64 3.08 15.392 2.184C18.144 1.288 21.248 0.839996 24.704 0.839996C28.352 0.839996 31.584 1.352 34.4 2.376C37.216 3.4 39.584 4.808 41.504 6.6C43.488 8.392 44.992 10.536 46.016 13.032C47.04 15.464 47.552 18.12 47.552 21C47.552 23.88 47.072 26.504 46.112 28.872C45.152 31.24 43.84 33.48 42.176 35.592C40.576 37.64 38.688 39.592 36.512 41.448C34.336 43.304 32.064 45.192 29.696 47.112L17.216 56.904H48.896V69Z" fill="#E3E3E3"/>
<path d="M48.896 69V70H49.896V69H48.896ZM1.472 69H0.472V70H1.472V69ZM1.472 55.848L0.821791 55.0882L0.472 55.3876V55.848H1.472ZM22.112 38.184L22.7622 38.9438L22.7649 38.9414L22.112 38.184ZM26.816 33.864L27.5231 34.5711L27.5317 34.5625L27.5401 34.5537L26.816 33.864ZM29.888 30.024L29.0495 29.479L29.0425 29.49L29.888 30.024ZM31.616 26.28L30.6624 25.9789L30.6551 26.002L30.6489 26.0255L31.616 26.28ZM29.408 15.24L28.7983 16.0326L28.7983 16.0326L29.408 15.24ZM26.528 13.8L26.2297 14.7545L26.2378 14.757L26.2458 14.7594L26.528 13.8ZM19.136 14.088L18.7479 13.1664L18.7389 13.1702L18.7299 13.1742L19.136 14.088ZM16.064 16.2L15.3569 15.4929L15.3569 15.4929L16.064 16.2ZM13.952 19.176L14.8358 19.6439L14.8412 19.6336L14.8464 19.6232L13.952 19.176ZM12.608 22.728L12.2514 23.6623L13.3047 24.0643L13.5781 22.9705L12.608 22.728ZM0.0320003 17.928L-0.916683 17.6118L-1.21964 18.5206L-0.324588 18.8623L0.0320003 17.928ZM3.2 11.4L4.03613 11.9487L4.04366 11.9369L3.2 11.4ZM8.192 5.928L8.80418 6.71873L8.80764 6.71602L8.192 5.928ZM34.4 2.376L34.0583 3.31579L34.0583 3.31579L34.4 2.376ZM41.504 6.6L40.8217 7.33105L40.8277 7.33662L40.8337 7.3421L41.504 6.6ZM46.016 13.032L45.0908 13.4116L45.0944 13.4201L46.016 13.032ZM42.176 35.592L41.3905 34.9731L41.388 34.9764L42.176 35.592ZM36.512 41.448L37.1609 42.2088L37.1609 42.2088L36.512 41.448ZM29.696 47.112L30.3133 47.8987L30.3196 47.8938L30.3258 47.8888L29.696 47.112ZM17.216 56.904L16.5987 56.1173L14.3215 57.904H17.216V56.904ZM48.896 56.904H49.896V55.904H48.896V56.904ZM48.896 68H1.472V70H48.896V68ZM2.472 69V55.848H0.472V69H2.472ZM2.12221 56.6078L22.7622 38.9438L21.4618 37.4242L0.821791 55.0882L2.12221 56.6078ZM22.7649 38.9414C24.6336 37.3305 26.2208 35.8734 27.5231 34.5711L26.1089 33.1569C24.8512 34.4146 23.3024 35.8375 21.4591 37.4266L22.7649 38.9414ZM27.5401 34.5537C28.8533 33.1749 29.9218 31.8431 30.7335 30.558L29.0425 29.49C28.3182 30.6369 27.3387 31.8651 26.0919 33.1743L27.5401 34.5537ZM30.7264 30.569C31.6045 29.2181 32.2309 27.8729 32.5831 26.5345L30.6489 26.0255C30.3611 27.1191 29.8355 28.2699 29.0496 29.479L30.7264 30.569ZM32.5696 26.5811C32.9874 25.2581 33.192 23.8436 33.192 22.344H31.192C31.192 23.6604 31.0126 24.8699 30.6624 25.9789L32.5696 26.5811ZM33.192 22.344V21H31.192V22.344H33.192ZM33.192 21C33.192 19.5848 32.9082 18.2978 32.3064 17.1694L30.5416 18.1106C30.9638 18.9022 31.192 19.8552 31.192 21H33.192ZM32.3064 17.1694C31.7299 16.0886 30.9666 15.1773 30.0177 14.4474L28.7983 16.0326C29.5134 16.5827 30.0941 17.2714 30.5416 18.1106L32.3064 17.1694ZM30.0177 14.4474C29.0802 13.7262 28.0071 13.1927 26.8102 12.8406L26.2458 14.7594C27.2249 15.0473 28.0718 15.4738 28.7983 16.0326L30.0177 14.4474ZM26.8263 12.8455C25.7044 12.4949 24.5477 12.32 23.36 12.32V14.32C24.3483 14.32 25.3037 14.4651 26.2297 14.7545L26.8263 12.8455ZM23.36 12.32C21.6544 12.32 20.1099 12.5929 18.7479 13.1664L19.5241 15.0096C20.5941 14.5591 21.8656 14.32 23.36 14.32V12.32ZM18.7299 13.1742C17.4651 13.7363 16.3392 14.5106 15.3569 15.4929L16.7711 16.9071C17.5808 16.0974 18.5029 15.4637 19.5421 15.0018L18.7299 13.1742ZM15.3569 15.4929C14.442 16.4077 13.6771 17.4897 13.0576 18.7288L14.8464 19.6232C15.3789 18.5583 16.022 17.6563 16.7711 16.9071L15.3569 15.4929ZM13.0682 18.7081C12.4518 19.8724 11.976 21.1327 11.6379 22.4855L13.5781 22.9705C13.88 21.7633 14.3002 20.6556 14.8358 19.6439L13.0682 18.7081ZM12.9646 21.7937L0.388589 16.9937L-0.324588 18.8623L12.2514 23.6623L12.9646 21.7937ZM0.980684 18.2442C1.72111 16.023 2.73907 13.925 4.03605 11.9487L2.36395 10.8513C0.972932 12.971 -0.121106 15.225 -0.916683 17.6118L0.980684 18.2442ZM4.04366 11.9369C5.32558 9.92244 6.91119 8.18426 8.80417 6.71872L7.57983 5.13728C5.50481 6.74374 3.76242 8.65356 2.35634 10.8631L4.04366 11.9369ZM8.80764 6.71602C10.7541 5.19538 13.0478 3.99889 15.7016 3.13487L15.0824 1.23312C12.2322 2.1611 9.72594 3.46061 7.57636 5.13998L8.80764 6.71602ZM15.7016 3.13487C18.3364 2.27702 21.3333 1.84 24.704 1.84V-0.160004C21.1627 -0.160004 17.9516 0.298968 15.0824 1.23312L15.7016 3.13487ZM24.704 1.84C28.26 1.84 31.3727 2.33922 34.0583 3.31579L34.7417 1.43621C31.7953 0.364772 28.444 -0.160004 24.704 -0.160004V1.84ZM34.0583 3.31579C36.7656 4.30027 39.0129 5.64287 40.8217 7.33105L42.1863 5.86894C40.1551 3.97312 37.6664 2.49973 34.7417 1.43621L34.0583 3.31579ZM40.8337 7.3421C42.7057 9.03289 44.1231 11.0526 45.0908 13.4116L46.9412 12.6524C45.8609 10.0194 44.2703 7.7511 42.1743 5.85789L40.8337 7.3421ZM45.0944 13.4201C46.0621 15.7184 46.552 18.241 46.552 21H48.552C48.552 17.999 48.0179 15.2096 46.9376 12.6439L45.0944 13.4201ZM46.552 21C46.552 23.7675 46.0911 26.2619 45.1853 28.4963L47.0387 29.2477C48.0529 26.7461 48.552 23.9925 48.552 21H46.552ZM45.1853 28.4963C44.2625 30.7725 42.9993 32.9312 41.3905 34.9731L42.9615 36.2109C44.6807 34.0287 46.0415 31.7075 47.0387 29.2477L45.1853 28.4963ZM41.388 34.9764C39.8332 36.9664 37.993 38.8705 35.8631 40.6872L37.1609 42.2088C39.383 40.3135 41.3188 38.3136 42.964 36.2076L41.388 34.9764ZM35.8631 40.6872C33.6938 42.5374 31.4282 44.4201 29.0662 46.3352L30.3258 47.8888C32.6998 45.9639 34.9782 44.0706 37.1609 42.2088L35.8631 40.6872ZM29.0787 46.3253L16.5987 56.1173L17.8333 57.6907L30.3133 47.8987L29.0787 46.3253ZM17.216 57.904H48.896V55.904H17.216V57.904ZM47.896 56.904V69H49.896V56.904H47.896Z" fill="black" fill-opacity="0.2" mask="url(#path-1-outside-1_467_7)"/>
</svg>
